<svg width="60" height="60" viewBox="0 0 60 60" fill="none" xmlns="http://www.w3.org/2000/svg">
<rect width="60" height="60" rx="30" fill="#DBFFF7"/>
<path d="M46.1668 22.1666C45.5002 21.5 44.5002 21.5 43.8335 22.1666L33.3335 32.6666L26.1668 25.5C25.8335 25.1666 25.5002 25 25.0002 25C24.5002 25 24.1668 25.1666 23.8335 25.5L13.8335 35.5C13.5002 35.8333 13.3335 36.1666 13.3335 36.6666C13.3335 37.6666 14.0002 38.3333 15.0002 38.3333C15.5002 38.3333 15.8335 38.1666 16.1668 37.8333L25.0002 29L32.1668 36.1666C32.3335 36.3333 32.5002 36.5 32.6668 36.5C32.8335 36.6666 33.1668 36.6666 33.3335 36.6666C33.6668 36.6666 34.1668 36.5 34.3335 36.1666C34.3335 36.1666 34.3335 36.1666 34.5002 36.1666L46.1668 24.5C46.8335 23.8333 46.8335 22.8333 46.1668 22.1666Z" fill="black"/>
</svg>
