<svg width="68" height="68" viewBox="0 0 68 68" fill="none" xmlns="http://www.w3.org/2000/svg">
<g filter="url(#filter0_d_1287_754)">
<rect x="4" width="60" height="60" rx="30" fill="#CDF9D9"/>
<path fill-rule="evenodd" clip-rule="evenodd" d="M22.6792 14.9167H28.7604C30.5726 14.9167 32.0417 16.3858 32.0417 18.1979V21.3625C32.0417 23.1747 30.5726 24.6438 28.7604 24.6438H22.6792C20.867 24.6438 19.3979 23.1747 19.3979 21.3625V18.1979C19.3979 16.3858 20.867 14.9167 22.6792 14.9167ZM28.7604 22.4563C29.3612 22.4484 29.8463 21.9633 29.8542 21.3625V18.1979C29.8463 17.5972 29.3612 17.112 28.7604 17.1042H22.6792C22.0784 17.112 21.5933 17.5972 21.5854 18.1979V21.3625C21.5933 21.9633 22.0784 22.4484 22.6792 22.4563H28.7604Z" fill="black"/>
<path fill-rule="evenodd" clip-rule="evenodd" d="M39.2167 14.9167H44.3208C46.133 14.9167 47.6021 16.3858 47.6021 18.1979V28.1584C47.6021 29.9705 46.133 31.4396 44.3208 31.4396H39.2167C38.3452 31.4435 37.5084 31.0991 36.8922 30.4829C36.276 29.8667 35.9315 29.0298 35.9354 28.1584V18.1979C35.9354 16.3858 37.4045 14.9167 39.2167 14.9167ZM44.3208 29.2521C44.9249 29.2521 45.4146 28.7624 45.4146 28.1584V18.1979C45.4067 17.5972 44.9216 17.112 44.3208 17.1042H39.2167C38.6126 17.1042 38.1229 17.5939 38.1229 18.1979V28.1584C38.119 28.4496 38.2329 28.7301 38.4389 28.9361C38.6449 29.1421 38.9254 29.2561 39.2167 29.2521H44.3208Z" fill="black"/>
<path fill-rule="evenodd" clip-rule="evenodd" d="M39.2167 35.3334H44.3209C46.133 35.3334 47.6021 36.8024 47.6021 38.6146V40.8021C47.6021 42.6143 46.133 44.0834 44.3209 44.0834H39.2167C37.4045 44.0834 35.9354 42.6143 35.9354 40.8021V38.6146C35.9354 36.8024 37.4045 35.3334 39.2167 35.3334ZM44.3209 41.8959C44.9216 41.888 45.4068 41.4029 45.4146 40.8021V38.6146C45.4068 38.0138 44.9216 37.5287 44.3209 37.5209H39.2167C38.6126 37.5209 38.1229 38.0105 38.1229 38.6146V40.8021C38.1229 41.4062 38.6126 41.8959 39.2167 41.8959H44.3209Z" fill="black"/>
<path fill-rule="evenodd" clip-rule="evenodd" d="M22.6792 28.5229H28.7604C30.5726 28.5229 32.0417 29.992 32.0417 31.8042V40.8021C32.0417 42.6143 30.5726 44.0834 28.7604 44.0834H22.6792C20.867 44.0834 19.3979 42.6143 19.3979 40.8021V31.8042C19.3979 29.992 20.867 28.5229 22.6792 28.5229ZM28.7604 41.8959C29.3612 41.888 29.8463 41.4029 29.8542 40.8021V31.8042C29.8463 31.2034 29.3612 30.7183 28.7604 30.7104H22.6792C22.0784 30.7183 21.5933 31.2034 21.5854 31.8042V40.8021C21.5933 41.4029 22.0784 41.888 22.6792 41.8959H28.7604Z" fill="black"/>
</g>
<defs>
<filter id="filter0_d_1287_754" x="0" y="0" width="68" height="68" filterUnits="userSpaceOnUse" color-interpolation-filters="sRGB">
<feFlood flood-opacity="0" result="BackgroundImageFix"/>
<feColorMatrix in="SourceAlpha" type="matrix" values="0 0 0 0 0 0 0 0 0 0 0 0 0 0 0 0 0 0 127 0" result="hardAlpha"/>
<feOffset dy="4"/>
<feGaussianBlur stdDeviation="2"/>
<feComposite in2="hardAlpha" operator="out"/>
<feColorMatrix type="matrix" values="0 0 0 0 0 0 0 0 0 0 0 0 0 0 0 0 0 0 0.25 0"/>
<feBlend mode="normal" in2="BackgroundImageFix" result="effect1_dropShadow_1287_754"/>
<feBlend mode="normal" in="SourceGraphic" in2="effect1_dropShadow_1287_754" result="shape"/>
</filter>
</defs>
</svg>
