<svg width="40" height="40" viewBox="0 0 40 40" fill="none" xmlns="http://www.w3.org/2000/svg">
<rect width="40" height="40" rx="20" fill="#C9FFF3"/>
<path d="M22.7561 11.9847C24.4444 11.6193 26.5388 11.6375 29.3889 12.3483C29.88 12.4708 30.1786 12.9673 30.0558 13.4572C29.9331 13.9472 29.4354 14.2451 28.9443 14.1226C26.2945 13.4618 24.4931 13.4802 23.145 13.772C21.7926 14.0648 20.8205 14.6454 19.7906 15.2733L19.7135 15.3204C18.7208 15.926 17.6215 16.5967 16.1691 16.8381C14.6626 17.0886 12.8831 16.8672 10.4932 15.9134C10.0231 15.7258 9.79453 15.1936 9.98256 14.7247C10.1706 14.2558 10.7041 14.0277 11.1741 14.2153C13.3674 15.0906 14.7961 15.2122 15.8677 15.0341C16.9557 14.8532 17.7852 14.3526 18.8346 13.7128C19.8672 13.0832 21.072 12.3493 22.7561 11.9847Z" fill="#0F0F0F"/>
<path d="M29.3889 16.0061C26.5388 15.2954 24.4444 15.2771 22.7561 15.6426C21.072 16.0072 19.8672 16.7411 18.8346 17.3706C17.7852 18.0104 16.9557 18.5111 15.8677 18.6919C14.7961 18.87 13.3674 18.7484 11.1741 17.8731C10.7041 17.6856 10.1706 17.9136 9.98256 18.3826C9.79453 18.8514 10.0231 19.3837 10.4932 19.5712C12.8831 20.525 14.6626 20.7464 16.1691 20.4959C17.6215 20.2545 18.7208 19.5839 19.7135 18.9782L19.7906 18.9312C20.8205 18.3033 21.7926 17.7226 23.145 17.4299C24.4931 17.138 26.2945 17.1196 28.9443 17.7804C29.4354 17.9029 29.9331 17.605 30.0558 17.115C30.1786 16.6251 29.88 16.1286 29.3889 16.0061Z" fill="#0F0F0F"/>
<path fill-rule="evenodd" clip-rule="evenodd" d="M26.4166 18.191C26.0983 18.191 25.8331 18.3554 25.648 18.6041C25.5831 18.6919 25.4328 18.8974 25.2333 19.1851C24.9678 19.5676 24.6125 20.0992 24.2556 20.6925C23.9005 21.283 23.5341 21.9507 23.2538 22.603C22.9854 23.2278 22.7491 23.9063 22.75 24.594C22.7506 24.7871 22.7737 24.9811 22.8055 25.1711C22.8584 25.4883 22.9661 25.925 23.1905 26.3727C23.4167 26.8242 23.7704 27.3034 24.3182 27.6677C24.8718 28.0359 25.5687 28.25 26.4166 28.25C27.2645 28.25 27.9613 28.0359 28.5148 27.6677C29.0626 27.3034 29.4165 26.8242 29.6427 26.3728C29.8671 25.925 29.9748 25.4883 30.0278 25.1712C30.0596 24.9809 30.083 24.7864 30.0832 24.5931C30.0835 23.9054 29.8478 23.2279 29.5794 22.603C29.2991 21.9507 28.9327 21.283 28.5776 20.6925C28.2208 20.0992 27.8654 19.5676 27.5999 19.1851C27.4003 18.8974 27.25 18.6919 27.1851 18.6041C27 18.3554 26.7348 18.191 26.4166 18.191ZM27.8943 23.3235C27.659 22.7757 27.3379 22.1861 27.0055 21.6335C26.8034 21.2974 26.6007 20.981 26.4166 20.7034C26.2324 20.981 26.0297 21.2974 25.8276 21.6335C25.4953 22.1861 25.1742 22.7757 24.9389 23.3235L24.9255 23.3545C24.7636 23.7312 24.5722 24.1765 24.5835 24.5926C24.5945 24.9217 24.6832 25.2614 24.8303 25.5549C24.9477 25.7894 25.1096 25.996 25.3352 26.1461C25.5551 26.2923 25.8895 26.4211 26.4166 26.4211C26.9437 26.4211 27.2781 26.2923 27.498 26.1461C27.7236 25.996 27.8854 25.7893 28.003 25.5549C28.1501 25.2614 28.2387 24.9217 28.2497 24.5925C28.2612 24.1766 28.0697 23.7313 27.9077 23.3547L27.8943 23.3235Z" fill="#0F0F0F"/>
<path d="M21.9522 19.5699C22.6491 19.3443 23.1835 20.0696 22.8558 20.7234C22.7061 21.0221 22.5377 21.2763 22.2029 21.3946C21.3072 21.711 20.5653 22.1566 19.7906 22.6289L19.7135 22.6759C18.7208 23.2815 17.6215 23.9522 16.1691 24.1936C14.6626 24.4441 12.8831 24.2227 10.4932 23.2689C10.0231 23.0813 9.79453 22.5491 9.98256 22.0802C10.1706 21.6113 10.7041 21.3832 11.1741 21.5709C13.3674 22.4461 14.7961 22.5677 15.8677 22.3896C16.9557 22.2088 17.7852 21.7081 18.8346 21.0682C19.832 20.4602 20.8583 19.924 21.9522 19.5699Z" fill="#0F0F0F"/>
</svg>
