<svg width="40" height="40" viewBox="0 0 40 40" fill="none" xmlns="http://www.w3.org/2000/svg">
<rect width="40" height="40" rx="20" fill="#B9D3FB"/>
<path d="M15 23C15 24.3261 15.5268 25.5978 16.4645 26.5355C17.4021 27.4732 18.6739 28 20 28C21.3261 28 22.5979 27.4732 23.5355 26.5355C24.4732 25.5978 25 24.3261 25 23C25 21.274 23.34 17.969 20 13.347C16.66 17.969 15 21.274 15 23ZM20 10C24.667 16.09 27 20.423 27 23C27 24.8565 26.2625 26.637 24.9497 27.9497C23.637 29.2625 21.8565 30 20 30C18.1435 30 16.363 29.2625 15.0503 27.9497C13.7375 26.637 13 24.8565 13 23C13 20.423 15.333 16.09 20 10Z" fill="black"/>
</svg>
