<svg width="60" height="60" viewBox="0 0 60 60" fill="none" xmlns="http://www.w3.org/2000/svg">
<rect width="60" height="60" rx="30" fill="#FDDEDE"/>
<path fill-rule="evenodd" clip-rule="evenodd" d="M42.044 24.5513C42.3614 25.3248 43.1138 25.8309 43.9499 25.8333C45.0848 25.8425 46 26.7651 45.9999 27.9V31.4666C45.9999 32.608 45.0746 33.5333 43.9332 33.5333C43.0971 33.5357 42.3448 34.0418 42.0273 34.8154C41.7099 35.5889 41.8898 36.4775 42.4832 37.0666C43.2793 37.8824 43.2793 39.1842 42.4832 40L39.9832 42.5C39.1675 43.296 37.8657 43.296 37.0499 42.5C36.6736 42.1013 36.1481 41.8778 35.5999 41.8833C35.0489 41.8789 34.519 42.0946 34.1278 42.4827C33.7366 42.8708 33.5166 43.399 33.5166 43.95C33.5166 45.0914 32.5913 46.0166 31.4499 46.0166H27.8832C26.7419 46.0166 25.8166 45.0914 25.8166 43.95C25.8166 43.399 25.5966 42.8708 25.2054 42.4827C24.8142 42.0946 24.2842 41.8789 23.7332 41.8833C23.1851 41.8778 22.6595 42.1013 22.2833 42.5C21.4675 43.296 20.1657 43.296 19.3499 42.5L16.8499 40C16.0539 39.1842 16.0539 37.8824 16.8499 37.0666C17.4433 36.4775 17.6233 35.5889 17.3058 34.8154C16.9884 34.0418 16.2361 33.5357 15.3999 33.5333C14.8518 33.5333 14.3261 33.3156 13.9386 32.928C13.551 32.5404 13.3333 32.0148 13.3333 31.4666V27.9C13.3333 26.7586 14.2585 25.8333 15.3999 25.8333C16.2361 25.8309 16.9884 25.3248 17.3058 24.5513C17.6233 23.7777 17.4433 22.8891 16.8499 22.3C16.0539 21.4842 16.0539 20.1824 16.8499 19.3666L19.3499 16.8666C20.1657 16.0706 21.4675 16.0706 22.2833 16.8666C22.6595 17.2653 23.1851 17.4888 23.7332 17.4833C24.2871 17.4878 24.8197 17.2697 25.2113 16.8781C25.603 16.4864 25.8211 15.9539 25.8166 15.4C25.8166 14.2586 26.7419 13.3333 27.8832 13.3333H31.4666C32.608 13.3333 33.5332 14.2586 33.5332 15.4C33.5288 15.9539 33.7468 16.4864 34.1385 16.8781C34.5302 17.2697 35.0627 17.4878 35.6166 17.4833C36.1647 17.4888 36.6903 17.2653 37.0666 16.8666C37.8823 16.0706 39.1842 16.0706 39.9999 16.8666L42.4999 19.3666C43.296 20.1824 43.296 21.4842 42.4999 22.3C41.9065 22.8891 41.7265 23.7777 42.044 24.5513ZM39.6666 33.85C40.3172 32.2637 41.807 31.1802 43.5166 31.05L43.4666 28.3166C41.7756 28.1684 40.3091 27.0878 39.6666 25.5166C39.0372 23.9418 39.3254 22.1483 40.4166 20.85L38.4999 18.9333C37.6871 19.614 36.6601 19.9859 35.5999 19.9833C33.238 19.9775 31.2643 18.1839 31.0333 15.8333H28.2999C28.0763 18.1876 26.0982 19.9853 23.7333 19.9833C22.6731 19.9859 21.6461 19.614 20.8333 18.9333L18.9666 20.85C20.0408 22.1582 20.3097 23.9508 19.6666 25.5166C19.024 27.0878 17.5576 28.1684 15.8666 28.3166V31.05C17.5576 31.1983 19.024 32.2788 19.6666 33.85C20.296 35.4249 20.0078 37.2183 18.9166 38.5166L20.8333 40.4333C21.6461 39.7526 22.6731 39.3808 23.7333 39.3833C26.0952 39.3891 28.0689 41.1827 28.2999 43.5333H31.0333C31.2416 41.1714 33.2289 39.3655 35.5999 39.3833C36.6601 39.3808 37.6871 39.7526 38.4999 40.4333L40.3666 38.5166C39.2924 37.2084 39.0235 35.4158 39.6666 33.85Z" fill="black"/>
<path fill-rule="evenodd" clip-rule="evenodd" d="M23.8999 29.6833C23.8999 26.4985 26.4817 23.9166 29.6666 23.9166C31.196 23.9166 32.6628 24.5242 33.7442 25.6057C34.8257 26.6871 35.4333 28.1539 35.4333 29.6833C35.4333 32.8682 32.8514 35.45 29.6666 35.45C26.4817 35.45 23.8999 32.8682 23.8999 29.6833ZM26.3333 29.6833C26.3333 31.5243 27.8256 33.0166 29.6666 33.0166C31.5075 33.0166 32.9999 31.5243 32.9999 29.6833C32.9999 27.8424 31.5075 26.35 29.6666 26.35C27.8256 26.35 26.3333 27.8424 26.3333 29.6833Z" fill="black"/>
</svg>
