<svg width="40" height="40" viewBox="0 0 40 40" fill="none" xmlns="http://www.w3.org/2000/svg">
<rect width="40" height="40" rx="20" fill="#CDF9D9"/>
<path d="M27.1012 13.1425C26.6787 12.59 25.9637 12.2975 25.3462 12.4275C24.6312 12.46 18.5537 12.915 15.5637 15.905C13.4837 17.985 13.3862 21.3325 15.2387 23.6725L12.5087 26.4025C12.2487 26.6625 12.2487 27.085 12.5087 27.3775C12.6387 27.5075 12.8012 27.5725 12.9962 27.5725C13.1912 27.5725 13.3537 27.5075 13.4837 27.3775L16.2137 24.6475C17.2862 25.4925 18.5862 25.98 19.9512 25.98C21.4787 25.98 22.9087 25.395 23.9812 24.3225C27.1012 21.2025 27.4587 15.255 27.4912 14.54C27.5562 14.0525 27.4262 13.565 27.1012 13.1425ZM26.1262 14.28C26.1262 14.3125 26.0937 14.3775 26.0937 14.41C26.0937 14.475 25.8662 20.4875 23.0062 23.3475C22.1937 24.16 21.1212 24.615 19.9512 24.615C18.9437 24.615 17.9687 24.29 17.1887 23.6725L23.1687 17.6925C23.4287 17.4325 23.4287 17.01 23.1687 16.7175C22.9087 16.4575 22.4862 16.4575 22.1937 16.7175L16.2137 22.73C14.8812 20.9425 14.9462 18.44 16.5062 16.88C19.2362 14.15 25.3787 13.7925 25.4437 13.7925C25.4762 13.7925 25.5412 13.7925 25.5737 13.76C25.6062 13.76 25.6062 13.76 25.6387 13.76C25.7687 13.76 25.8987 13.8575 25.9962 13.9875C26.0937 14.085 26.1262 14.1825 26.1262 14.28Z" fill="black"/>
</svg>
