<svg width="40" height="40" viewBox="0 0 40 40" fill="none" xmlns="http://www.w3.org/2000/svg">
<rect width="40" height="40" rx="20" fill="#FDDEDE"/>
<g clip-path="url(#clip0_1298_556)">
<path d="M23.2527 21.767V12.2523C23.2527 10.4589 21.7934 9 19.9997 9C18.2064 9 16.7473 10.4589 16.7473 12.2523V21.767C15.5245 22.7496 14.8081 24.226 14.8081 25.8082C14.8081 28.671 17.137 31.0001 19.9997 31.0001C22.8626 31.0001 25.192 28.6711 25.192 25.8082C25.192 24.226 24.4755 22.7496 23.2527 21.767ZM19.9997 29.1682C18.1471 29.1682 16.64 27.6608 16.64 25.8081C16.64 24.6746 17.2101 23.6241 18.1651 22.9984C18.4234 22.829 18.5791 22.541 18.5791 22.2323V12.2523C18.5791 11.4691 19.2164 10.8318 19.9997 10.8318C20.7833 10.8318 21.4208 11.4691 21.4208 12.2523V22.2324C21.4208 22.5413 21.5764 22.8294 21.8348 22.9985C22.79 23.6243 23.3601 24.6746 23.3601 25.8082C23.3601 27.6609 21.8527 29.1682 19.9997 29.1682Z" fill="black"/>
</g>
<defs>
<clipPath id="clip0_1298_556">
<rect width="22" height="22" fill="white" transform="translate(9 9)"/>
</clipPath>
</defs>
</svg>
